<?xml version="1.0" encoding="UTF-8"?>
<svg version="1.1" xmlns="http://www.w3.org/2000/svg" width="414" height="1091">
<path d="M0 0 C5.57324177 0.61924909 10.89392773 1.26462448 16.37723351 2.26032257 C17.06544554 2.3844281 17.75365757 2.50853362 18.46272451 2.63639992 C20.75021051 3.04966745 23.03688218 3.46727123 25.32357788 3.8848877 C26.98732991 4.18640871 28.65113057 4.48766145 30.31497538 4.78867006 C34.87278596 5.614036 39.42989496 6.44321885 43.98689532 7.27304482 C48.90668472 8.16824499 53.82711638 9.05990199 58.74746704 9.95201111 C68.37911248 11.69891187 78.01015674 13.44910551 87.64099543 15.20044792 C98.8520934 17.23904831 110.06375328 19.27455008 121.27543004 21.30996448 C141.27311916 24.94055372 161.27025067 28.57420523 181.26708984 32.20947266 C200.6826385 35.73906539 220.09864567 39.26612242 239.51513672 42.79052734 C260.65457901 46.62767904 281.79376969 50.46621147 302.93251956 54.30717611 C305.18456233 54.7163763 307.43660522 55.12557585 309.68864822 55.53477478 C310.79674353 55.73611913 311.90483883 55.93746348 313.04651278 56.14490917 C320.8672502 57.56587244 328.68816186 58.98587419 336.5091362 60.40553284 C346.03153303 62.13407339 355.55363759 63.86421353 365.07537071 65.59640658 C369.93624469 66.48065887 374.79724508 67.36420014 379.65859222 68.2458477 C384.10345191 69.05198414 388.54794011 69.86013601 392.99213322 70.66993898 C394.60482229 70.96342638 396.21764838 71.25616205 397.83061986 71.54809338 C400.01339138 71.94326698 402.19565787 72.34111821 404.37781334 72.73967743 C405.59297611 72.96051231 406.80813887 73.18134719 408.06012475 73.40887403 C411 74 411 74 414 75 C414 278.61 414 482.22 414 692 C396.01288495 689.00214749 378.05540773 685.98423407 360.125 682.6875 C353.48375 681.470625 346.8425 680.25375 340 679 C339.67 703.09 339.34 727.18 339 752 C348.9 753.65 358.8 755.3 369 757 C376.0057268 758.23283305 383.00909565 759.46619662 390.00708008 760.74023438 C392.91603532 761.26881314 395.82615728 761.79065972 398.73632812 762.3125 C400.60163452 762.65064464 402.46687204 762.98916947 404.33203125 763.328125 C405.62679131 763.55934052 405.62679131 763.55934052 406.94770813 763.79522705 C412.88546213 764.88546213 412.88546213 764.88546213 414 766 C414.09381302 767.84118029 414.11743954 769.68597641 414.11352539 771.52954102 C414.11344986 772.71068985 414.11337433 773.89183868 414.11329651 775.10877991 C414.10813522 776.3941716 414.10297394 777.67956329 414.09765625 779.00390625 C414.09553383 780.9661338 414.09553383 780.9661338 414.09336853 782.96800232 C414.0895441 786.45162859 414.07971446 789.93521339 414.06866455 793.41882324 C414.05844882 796.97126698 414.05381586 800.52371759 414.04882812 804.07617188 C414.03862235 811.05080005 414.01985643 818.02539288 414 825 C393.01598488 821.4318814 372.06733577 817.68755823 351.1271534 813.87194729 C346.90439457 813.10277649 342.68136608 812.33508877 338.45837402 811.56719971 C331.40242623 810.28396816 324.34665719 808.99975789 317.29101562 807.71484375 C308.2427183 806.06704924 299.19411703 804.42092987 290.14542389 802.77531052 C282.31747714 801.35168606 274.48966654 799.92731349 266.66187859 798.5028162 C264.16207547 798.04793504 261.66225388 797.59315555 259.16242981 797.13838959 C255.2484919 796.42631949 251.33463934 795.71378201 247.42085266 795.0008812 C245.98777968 794.73991219 244.55467998 794.47908986 243.12155151 794.21842575 C241.16514806 793.86255673 239.20885305 793.50609167 237.25256348 793.14959717 C236.15918922 792.95053143 235.06581497 792.75146568 233.93930817 792.54636765 C231.28854712 792.05363603 228.64380964 791.52876193 226 791 C226 815.42 226 839.84 226 865 C229.63 865.33 233.26 865.66 237 866 C239.67203733 866.40413107 242.33882448 866.84522637 244.99771118 867.32836914 C246.08880867 867.52460294 246.08880867 867.52460294 247.20194852 867.72480106 C249.59853616 868.15702871 251.99382413 868.59604992 254.38916016 869.03515625 C256.12305534 869.34935083 257.8570256 869.66313132 259.59106445 869.97653198 C264.26883856 870.82327591 268.9454929 871.67605654 273.62192202 872.53019333 C278.52160095 873.4242647 283.42216716 874.31344839 288.32260132 875.20336914 C296.53909692 876.69629236 304.75486671 878.19315898 312.97021484 879.69238281 C322.47783645 881.42738302 331.98659218 883.15605605 341.49596941 884.88140583 C350.64778321 886.54203217 359.79878145 888.20711102 368.9494133 889.87423706 C372.84467776 890.5838202 376.74022496 891.29182107 380.6360054 891.99856567 C385.2118219 892.82888335 389.78691467 893.66307747 394.36146545 894.50033951 C396.04431249 894.80768962 397.72740893 895.11367756 399.41076279 895.41823959 C401.69856806 895.83239055 403.9854381 896.25135708 406.27212524 896.67163086 C407.55480097 896.90538925 408.83747669 897.13914764 410.15902138 897.37998962 C413 898 413 898 414 899 C414.09381302 900.84118029 414.11743954 902.68597641 414.11352539 904.52954102 C414.11344986 905.71068985 414.11337433 906.89183868 414.11329651 908.10877991 C414.10813522 909.3941716 414.10297394 910.67956329 414.09765625 912.00390625 C414.09553383 913.9661338 414.09553383 913.9661338 414.09336853 915.96800232 C414.0895441 919.45162859 414.07971446 922.93521339 414.06866455 926.41882324 C414.05844882 929.97126698 414.05381586 933.52371759 414.04882812 937.07617188 C414.04163029 941.99516988 414.03068034 946.91413735 414.01706696 951.83312225 C414.01228325 953.56683618 414.01228325 953.56683618 414.0074029 955.33557463 C414.00495994 956.214835 414.00251698 957.09409537 414 958 C394.95497363 954.74701885 375.93170376 951.39173909 356.92260742 947.93432617 C354.25828501 947.45072655 351.59394425 946.96722899 348.92958069 946.4838562 C343.26321245 945.45565127 337.59701022 944.42653588 331.93092918 943.3967495 C323.73935433 941.90796668 315.54751581 940.42063872 307.35561816 938.93363325 C294.05550061 936.51933678 280.75558855 934.10391032 267.45581055 931.68774414 C254.55845977 929.34468935 241.66100923 927.00218485 228.76342773 924.66040039 C227.96455791 924.51535122 227.16568808 924.37030206 226.34261008 924.22085746 C222.33376085 923.49298232 218.32490968 922.76511778 214.31605756 922.03725851 C181.21040639 916.02648261 148.10512975 910.01364725 115 904 C114.67 928.09 114.34 952.18 114 977 C118.62 977.66 123.24 978.32 128 979 C132.1863126 979.71575076 136.3642781 980.44899394 140.54122925 981.21463013 C141.72108717 981.4286837 142.90094509 981.64273727 144.11655629 981.86327732 C147.34612612 982.44973622 150.57525996 983.0385274 153.80421376 983.62836671 C157.30330821 984.26694342 160.80296517 984.90242382 164.30255127 985.53829956 C170.35076739 986.6376906 176.39863176 987.73899905 182.44625473 988.8416481 C191.18987072 990.43584837 199.93402176 992.02709756 208.67830195 993.61765014 C222.86875661 996.19892363 237.05878179 998.78255011 251.24853516 1001.36767578 C265.02435045 1003.8773839 278.80036898 1006.38597174 292.57666016 1008.89306641 C293.85256407 1009.12526389 293.85256407 1009.12526389 295.15424381 1009.36215223 C299.42189599 1010.13880088 303.68955216 1010.91542765 307.9572103 1011.69204354 C343.30542508 1018.12463702 378.65286155 1024.56149417 414 1031 C414 1050.8 414 1070.6 414 1091 C275.79295162 1067.17119856 137.98402806 1041.0880051 0 1016 C0 680.72 0 345.44 0 0 Z " fill="#CBB27C" transform="translate(0,0)"/>
</svg>
